<svg width="68" height="24" viewBox="0 0 68 24" fill="none" xmlns="http://www.w3.org/2000/svg">
<path fill-rule="evenodd" clip-rule="evenodd" d="M1.78975 7.66475C2.00942 7.44508 2.36558 7.44508 2.58525 7.66475L7.25 12.3295L9.66475 9.91475C9.88442 9.69508 10.2406 9.69508 10.4602 9.91475L17.2102 16.6648C17.4299 16.8844 17.4299 17.2406 17.2102 17.4602C16.9906 17.6799 16.6344 17.6799 16.4148 17.4602L10.0625 11.108L7.64775 13.5227C7.42808 13.7424 7.07192 13.7424 6.85225 13.5227L1.78975 8.46025C1.57008 8.24058 1.57008 7.88442 1.78975 7.66475Z" fill="#F74E2C"/>
<path fill-rule="evenodd" clip-rule="evenodd" d="M16.8125 12C17.1232 12 17.375 12.2518 17.375 12.5625V17.0625C17.375 17.3732 17.1232 17.625 16.8125 17.625H12.3125C12.0018 17.625 11.75 17.3732 11.75 17.0625C11.75 16.7518 12.0018 16.5 12.3125 16.5H16.25V12.5625C16.25 12.2518 16.5018 12 16.8125 12Z" fill="#F74E2C"/>
<path d="M28.356 18.192C27.5347 18.192 26.8413 18.0533 26.276 17.776C25.7213 17.488 25.2573 17.1573 24.884 16.784L25.732 15.6C26.0413 15.888 26.388 16.144 26.772 16.368C27.156 16.5813 27.604 16.688 28.116 16.688C28.6813 16.688 29.1507 16.5173 29.524 16.176C29.8973 15.8347 30.084 15.3547 30.084 14.736C30.084 14.128 29.9133 13.6587 29.572 13.328C29.2307 12.9973 28.7773 12.832 28.212 12.832C27.8813 12.832 27.604 12.88 27.38 12.976C27.156 13.0613 26.8893 13.2053 26.58 13.408L25.7 12.848L26.004 7.824H31.444V9.376H27.604L27.396 11.84C27.6093 11.7333 27.8173 11.6533 28.02 11.6C28.2333 11.536 28.4733 11.504 28.74 11.504C29.3267 11.504 29.86 11.616 30.34 11.84C30.82 12.064 31.204 12.4107 31.492 12.88C31.7907 13.3493 31.94 13.952 31.94 14.688C31.94 15.424 31.7693 16.0533 31.428 16.576C31.0973 17.0987 30.66 17.4987 30.116 17.776C29.572 18.0533 28.9853 18.192 28.356 18.192ZM34.9111 18.192C34.5805 18.192 34.2978 18.0747 34.0631 17.84C33.8285 17.6053 33.7111 17.3067 33.7111 16.944C33.7111 16.5813 33.8285 16.2827 34.0631 16.048C34.2978 15.8133 34.5805 15.696 34.9111 15.696C35.2525 15.696 35.5351 15.8133 35.7591 16.048C35.9831 16.2827 36.0951 16.5813 36.0951 16.944C36.0951 17.3067 35.9831 17.6053 35.7591 17.84C35.5351 18.0747 35.2525 18.192 34.9111 18.192ZM39.7974 18C39.8614 16.7947 39.9894 15.7173 40.1814 14.768C40.3734 13.808 40.6667 12.896 41.0614 12.032C41.456 11.168 41.9787 10.2827 42.6294 9.376H37.8134V7.824H44.6454V8.944C44.048 9.68 43.5627 10.384 43.1894 11.056C42.8267 11.728 42.5387 12.4107 42.3254 13.104C42.1227 13.7867 41.9734 14.528 41.8774 15.328C41.7814 16.1173 41.712 17.008 41.6694 18H39.7974ZM49.6005 13.04C49.3125 13.04 49.0085 13.1307 48.6885 13.312C48.3685 13.4827 48.0645 13.7813 47.7765 14.208C47.8725 15.1147 48.0912 15.7707 48.4325 16.176C48.7738 16.5813 49.1898 16.784 49.6805 16.784C50.1072 16.784 50.4645 16.6187 50.7525 16.288C51.0512 15.9467 51.2005 15.4667 51.2005 14.848C51.2005 14.2507 51.0565 13.8027 50.7685 13.504C50.4912 13.1947 50.1018 13.04 49.6005 13.04ZM49.7125 18.192C49.0512 18.192 48.4378 18.016 47.8725 17.664C47.3072 17.312 46.8538 16.768 46.5125 16.032C46.1818 15.296 46.0165 14.3573 46.0165 13.216C46.0165 11.8933 46.2032 10.8267 46.5765 10.016C46.9605 9.19467 47.4565 8.592 48.0645 8.208C48.6725 7.824 49.3232 7.632 50.0165 7.632C50.6352 7.632 51.1685 7.744 51.6165 7.968C52.0645 8.192 52.4378 8.464 52.7365 8.784L51.7445 9.904C51.5632 9.68 51.3232 9.49867 51.0245 9.36C50.7365 9.21067 50.4378 9.136 50.1285 9.136C49.7018 9.136 49.3125 9.25333 48.9605 9.488C48.6085 9.72267 48.3205 10.1173 48.0965 10.672C47.8832 11.216 47.7605 11.9573 47.7285 12.896C48.0272 12.5227 48.3792 12.2293 48.7845 12.016C49.1898 11.8027 49.5738 11.696 49.9365 11.696C50.8218 11.696 51.5365 11.9573 52.0805 12.48C52.6352 12.992 52.9125 13.7813 52.9125 14.848C52.9125 15.52 52.7632 16.1067 52.4645 16.608C52.1765 17.1093 51.7925 17.4987 51.3125 17.776C50.8325 18.0533 50.2992 18.192 49.7125 18.192ZM56.4916 13.968C55.7556 13.968 55.153 13.68 54.6836 13.104C54.225 12.5173 53.9956 11.696 53.9956 10.64C53.9956 9.59467 54.225 8.784 54.6836 8.208C55.153 7.632 55.7556 7.344 56.4916 7.344C57.2276 7.344 57.825 7.632 58.2836 8.208C58.753 8.784 58.9876 9.59467 58.9876 10.64C58.9876 11.696 58.753 12.5173 58.2836 13.104C57.825 13.68 57.2276 13.968 56.4916 13.968ZM56.4916 12.896C56.833 12.896 57.1103 12.7147 57.3236 12.352C57.5476 11.9893 57.6596 11.4187 57.6596 10.64C57.6596 9.85067 57.5476 9.28533 57.3236 8.944C57.1103 8.592 56.833 8.416 56.4916 8.416C56.161 8.416 55.8836 8.592 55.6596 8.944C55.4356 9.28533 55.3236 9.85067 55.3236 10.64C55.3236 11.4187 55.4356 11.9893 55.6596 12.352C55.8836 12.7147 56.161 12.896 56.4916 12.896ZM56.8276 18.192L62.5396 7.344H63.6596L57.9636 18.192H56.8276ZM63.9956 18.192C63.2596 18.192 62.657 17.904 62.1876 17.328C61.729 16.7413 61.4996 15.92 61.4996 14.864C61.4996 13.8187 61.729 13.008 62.1876 12.432C62.657 11.856 63.2596 11.568 63.9956 11.568C64.7316 11.568 65.329 11.856 65.7876 12.432C66.257 13.008 66.4916 13.8187 66.4916 14.864C66.4916 15.92 66.257 16.7413 65.7876 17.328C65.329 17.904 64.7316 18.192 63.9956 18.192ZM63.9956 17.12C64.337 17.12 64.6143 16.9387 64.8276 16.576C65.0516 16.2133 65.1636 15.6427 65.1636 14.864C65.1636 14.0747 65.0516 13.5093 64.8276 13.168C64.6143 12.816 64.337 12.64 63.9956 12.64C63.665 12.64 63.3876 12.816 63.1636 13.168C62.9396 13.5093 62.8276 14.0747 62.8276 14.864C62.8276 15.6427 62.9396 16.2133 63.1636 16.576C63.3876 16.9387 63.665 17.12 63.9956 17.12Z" fill="#F74E2C"/>
</svg>
